<mxfile modified="2023-05-22T18:13:57.891Z" host="app.diagrams.net" agent="Mozilla/5.0 (Windows NT 10.0; Win64; x64) AppleWebKit/537.36 (KHTML, like Gecko) Chrome/113.0.0.0 Safari/537.36" etag="u_YrfI1kl-MrHpMcvJab" version="21.3.2" type="github">
  <diagram id="Ht1M8jgEwFfnCIfOTk4-" name="Page-1">
    <mxGraphModel dx="525" dy="527" grid="1" gridSize="10" guides="1" tooltips="1" connect="1" arrows="1" fold="1" page="1" pageScale="1" pageWidth="1169" pageHeight="827" math="0" shadow="0">
      <root>
        <mxCell id="0" />
        <mxCell id="1" parent="0" />
        <mxCell id="UEzPUAAOIrF-is8g5C7q-130" style="edgeStyle=orthogonalEdgeStyle;rounded=0;orthogonalLoop=1;jettySize=auto;html=1;startArrow=open;startFill=0;endArrow=open;endFill=0;strokeWidth=2;strokeColor=#808080;exitX=0.855;exitY=0.145;exitDx=0;exitDy=0;exitPerimeter=0;entryX=0;entryY=0.5;entryDx=0;entryDy=0;entryPerimeter=0;" parent="1" source="PotebYjNREBIz9ww5w4z-4" target="PotebYjNREBIz9ww5w4z-5" edge="1">
          <mxGeometry relative="1" as="geometry">
            <Array as="points">
              <mxPoint x="530" y="339" />
              <mxPoint x="570" y="339" />
              <mxPoint x="570" y="275" />
            </Array>
            <mxPoint x="658.499112850026" y="352" as="sourcePoint" />
            <mxPoint x="800.5000000000002" y="53" as="targetPoint" />
          </mxGeometry>
        </mxCell>
        <mxCell id="UEzPUAAOIrF-is8g5C7q-131" style="edgeStyle=orthogonalEdgeStyle;rounded=0;orthogonalLoop=1;jettySize=auto;html=1;startArrow=open;startFill=0;endArrow=open;endFill=0;strokeWidth=2;strokeColor=#808080;exitX=1;exitY=0.5;exitDx=0;exitDy=0;entryX=0;entryY=0.5;entryDx=0;entryDy=0;entryPerimeter=0;" parent="1" source="PotebYjNREBIz9ww5w4z-1" target="PotebYjNREBIz9ww5w4z-4" edge="1">
          <mxGeometry relative="1" as="geometry">
            <Array as="points">
              <mxPoint x="380" y="362" />
              <mxPoint x="460" y="362" />
            </Array>
            <mxPoint x="658.499112850026" y="361.5" as="sourcePoint" />
          </mxGeometry>
        </mxCell>
        <object label="" Internet="" id="PotebYjNREBIz9ww5w4z-1">
          <mxCell style="image;aspect=fixed;perimeter=ellipsePerimeter;html=1;align=center;shadow=0;dashed=0;spacingTop=3;image=img/lib/active_directory/internet_globe.svg;" vertex="1" parent="1">
            <mxGeometry x="270" y="310" width="110" height="110" as="geometry" />
          </mxCell>
        </object>
        <mxCell id="PotebYjNREBIz9ww5w4z-4" value="" style="outlineConnect=0;dashed=0;verticalLabelPosition=bottom;verticalAlign=top;align=center;html=1;shape=mxgraph.aws3.classic_load_balancer;fillColor=#F58534;gradientColor=none;" vertex="1" parent="1">
          <mxGeometry x="440" y="329" width="69" height="72" as="geometry" />
        </mxCell>
        <mxCell id="PotebYjNREBIz9ww5w4z-5" value="" style="sketch=0;aspect=fixed;pointerEvents=1;shadow=0;dashed=0;html=1;strokeColor=none;labelPosition=center;verticalLabelPosition=bottom;verticalAlign=top;align=center;fillColor=#00188D;shape=mxgraph.mscae.enterprise.application_server" vertex="1" parent="1">
          <mxGeometry x="650" y="250" width="43" height="50" as="geometry" />
        </mxCell>
        <mxCell id="PotebYjNREBIz9ww5w4z-6" value="" style="sketch=0;aspect=fixed;pointerEvents=1;shadow=0;dashed=0;html=1;strokeColor=none;labelPosition=center;verticalLabelPosition=bottom;verticalAlign=top;align=center;fillColor=#00188D;shape=mxgraph.mscae.enterprise.application_server" vertex="1" parent="1">
          <mxGeometry x="650" y="340" width="43" height="50" as="geometry" />
        </mxCell>
        <mxCell id="PotebYjNREBIz9ww5w4z-7" value="" style="sketch=0;aspect=fixed;pointerEvents=1;shadow=0;dashed=0;html=1;strokeColor=none;labelPosition=center;verticalLabelPosition=bottom;verticalAlign=top;align=center;fillColor=#00188D;shape=mxgraph.mscae.enterprise.application_server" vertex="1" parent="1">
          <mxGeometry x="650" y="430" width="43" height="50" as="geometry" />
        </mxCell>
        <mxCell id="PotebYjNREBIz9ww5w4z-8" value="" style="sketch=0;aspect=fixed;pointerEvents=1;shadow=0;dashed=0;html=1;strokeColor=none;labelPosition=center;verticalLabelPosition=bottom;verticalAlign=top;align=center;fillColor=#00188D;shape=mxgraph.mscae.enterprise.application_server" vertex="1" parent="1">
          <mxGeometry x="650" y="530" width="43" height="50" as="geometry" />
        </mxCell>
        <mxCell id="PotebYjNREBIz9ww5w4z-9" style="edgeStyle=orthogonalEdgeStyle;rounded=0;orthogonalLoop=1;jettySize=auto;html=1;startArrow=open;startFill=0;endArrow=open;endFill=0;strokeWidth=2;strokeColor=#808080;entryX=0;entryY=0.5;entryDx=0;entryDy=0;entryPerimeter=0;exitX=1;exitY=0.5;exitDx=0;exitDy=0;exitPerimeter=0;" edge="1" parent="1" source="PotebYjNREBIz9ww5w4z-4" target="PotebYjNREBIz9ww5w4z-6">
          <mxGeometry relative="1" as="geometry">
            <Array as="points">
              <mxPoint x="529" y="365" />
              <mxPoint x="529" y="360" />
              <mxPoint x="610" y="360" />
              <mxPoint x="610" y="365" />
            </Array>
            <mxPoint x="550" y="430" as="sourcePoint" />
            <mxPoint x="660" y="285" as="targetPoint" />
          </mxGeometry>
        </mxCell>
        <mxCell id="PotebYjNREBIz9ww5w4z-10" style="edgeStyle=orthogonalEdgeStyle;rounded=0;orthogonalLoop=1;jettySize=auto;html=1;startArrow=open;startFill=0;endArrow=open;endFill=0;strokeWidth=2;strokeColor=#808080;entryX=0;entryY=0.6;entryDx=0;entryDy=0;entryPerimeter=0;" edge="1" parent="1" source="PotebYjNREBIz9ww5w4z-4" target="PotebYjNREBIz9ww5w4z-7">
          <mxGeometry relative="1" as="geometry">
            <Array as="points">
              <mxPoint x="539" y="375" />
              <mxPoint x="539" y="450" />
              <mxPoint x="640" y="450" />
              <mxPoint x="640" y="460" />
            </Array>
            <mxPoint x="519" y="375" as="sourcePoint" />
            <mxPoint x="640" y="470" as="targetPoint" />
          </mxGeometry>
        </mxCell>
        <mxCell id="PotebYjNREBIz9ww5w4z-11" style="edgeStyle=orthogonalEdgeStyle;rounded=0;orthogonalLoop=1;jettySize=auto;html=1;startArrow=open;startFill=0;endArrow=open;endFill=0;strokeWidth=2;strokeColor=#808080;entryX=0;entryY=0.6;entryDx=0;entryDy=0;entryPerimeter=0;exitX=0.855;exitY=0.855;exitDx=0;exitDy=0;exitPerimeter=0;" edge="1" parent="1" source="PotebYjNREBIz9ww5w4z-4" target="PotebYjNREBIz9ww5w4z-8">
          <mxGeometry relative="1" as="geometry">
            <Array as="points">
              <mxPoint x="510" y="391" />
              <mxPoint x="510" y="460" />
              <mxPoint x="600" y="460" />
              <mxPoint x="600" y="560" />
            </Array>
            <mxPoint x="519" y="385" as="sourcePoint" />
            <mxPoint x="640" y="560" as="targetPoint" />
          </mxGeometry>
        </mxCell>
      </root>
    </mxGraphModel>
  </diagram>
</mxfile>
